<svg width="232" height="142" viewBox="0 0 232 142" fill="none" xmlns="http://www.w3.org/2000/svg">
<path fill-rule="evenodd" clip-rule="evenodd" d="M211.457 138.656C211.457 140.271 200.98 141.581 188.056 141.581C175.133 141.581 164.657 140.271 164.657 138.656C164.657 137.041 175.133 135.731 188.056 135.731C200.98 135.731 211.457 137.041 211.457 138.656Z" fill="black" fill-opacity="0.1"/>
<path fill-rule="evenodd" clip-rule="evenodd" d="M59.16 138.656C59.16 140.271 50.5163 141.581 39.8555 141.581C29.1929 141.581 20.55 140.271 20.55 138.656C20.55 137.041 29.1929 135.731 39.8555 135.731C50.5163 135.731 59.16 137.041 59.16 138.656Z" fill="black" fill-opacity="0.1"/>
<path fill-rule="evenodd" clip-rule="evenodd" d="M227.542 95.6327C227.542 116.589 210.554 133.579 189.596 133.579C168.64 133.579 151.65 116.589 151.65 95.6327C151.65 74.6767 168.64 57.6868 189.596 57.6868C210.554 57.6868 227.542 74.6767 227.542 95.6327Z" stroke="#3CAAB0" stroke-width="7.88486"/>
<path fill-rule="evenodd" clip-rule="evenodd" d="M224.233 95.6328C224.233 114.763 208.725 130.269 189.597 130.269C170.468 130.269 154.958 114.763 154.958 95.6328C154.958 76.5021 170.468 60.9965 189.597 60.9965C208.725 60.9965 224.233 76.5021 224.233 95.6328Z" stroke="#092242" stroke-width="3.94243"/>
<path fill-rule="evenodd" clip-rule="evenodd" d="M197.311 95.6328C197.311 99.8945 193.858 103.348 189.596 103.348C185.336 103.348 181.881 99.8945 181.881 95.6328C181.881 91.371 185.336 87.9174 189.596 87.9174C193.858 87.9174 197.311 91.371 197.311 95.6328Z" fill="#092242"/>
<path fill-rule="evenodd" clip-rule="evenodd" d="M79.9259 95.6327C79.9259 116.589 62.936 133.579 41.98 133.579C21.0221 133.579 4.03412 116.589 4.03412 95.6327C4.03412 74.6767 21.0221 57.6868 41.98 57.6868C62.936 57.6868 79.9259 74.6767 79.9259 95.6327Z" stroke="#3CAAB0" stroke-width="7.88486"/>
<path fill-rule="evenodd" clip-rule="evenodd" d="M76.6168 95.6328C76.6168 114.763 61.1093 130.269 41.9806 130.269C22.85 130.269 7.34241 114.763 7.34241 95.6328C7.34241 76.5021 22.85 60.9965 41.9806 60.9965C61.1093 60.9965 76.6168 76.5021 76.6168 95.6328Z" stroke="#092242" stroke-width="3.94243"/>
<path fill-rule="evenodd" clip-rule="evenodd" d="M49.6946 95.6328C49.6946 99.8945 46.241 103.348 41.9792 103.348C37.7194 103.348 34.2659 99.8945 34.2659 95.6328C34.2659 91.371 37.7194 87.9174 41.9792 87.9174C46.241 87.9174 49.6946 91.371 49.6946 95.6328Z" fill="#092242"/>
<path d="M41.98 90.3765L105.5 85.4721" stroke="#092242" stroke-width="1.97122"/>
<path fill-rule="evenodd" clip-rule="evenodd" d="M118.763 95.6328C118.763 101.444 114.052 106.155 108.241 106.155C102.428 106.155 97.7166 101.444 97.7166 95.6328C97.7166 89.8216 102.428 85.1104 108.241 85.1104C114.052 85.1104 118.763 89.8216 118.763 95.6328Z" fill="#092242"/>
<path d="M189.596 95.6327L171.092 2.61699" stroke="url(#paint0_linear_0_797)" stroke-width="3.94243" stroke-linecap="round" stroke-linejoin="round"/>
<path d="M88.6251 26.1474H175.981" stroke="url(#paint1_linear_0_797)" stroke-width="3.94243" stroke-linecap="round" stroke-linejoin="round"/>
<path d="M103.964 80.07C103.964 80.07 129.085 36.9891 177.929 36.9891" stroke="url(#paint2_linear_0_797)" stroke-width="3.94243" stroke-linecap="round" stroke-linejoin="round"/>
<path d="M107.038 95.6327H41.9798C41.9798 95.6327 44.8814 37.886 86.8604 19.944" stroke="url(#paint3_linear_0_797)" stroke-width="3.94243" stroke-linecap="round" stroke-linejoin="round"/>
<path d="M85.4709 15.0593L109.372 99.0824" stroke="url(#paint4_linear_0_797)" stroke-width="3.94243" stroke-linecap="round" stroke-linejoin="round"/>
<path d="M167.523 2H188.713C196.352 2 198.694 10.2535 194.381 15.0593C190.07 19.8651 182.023 18.6331 182.023 18.6331" stroke="url(#paint5_linear_0_797)" stroke-width="3.94243" stroke-linecap="round" stroke-linejoin="round"/>
<path d="M41.2004 101.218L109.371 106.803" stroke="#092242" stroke-width="1.97122"/>
<path fill-rule="evenodd" clip-rule="evenodd" d="M79.9259 16.1709C72.7586 16.1709 72.4935 14.5525 72.4935 12.5576C72.4935 10.5608 72.7586 8.9444 79.9259 8.9444C87.0913 8.9444 98.4485 10.5608 98.4485 12.5576C98.4485 14.5525 87.0913 16.1709 79.9259 16.1709Z" fill="#6B3E00"/>
<defs>
<linearGradient id="paint0_linear_0_797" x1="192.432" y1="124.144" x2="192.432" y2="2.61699" gradientUnits="userSpaceOnUse">
<stop stop-color="#009EFD"/>
<stop offset="1" stop-color="#2AF598"/>
</linearGradient>
<linearGradient id="paint1_linear_0_797" x1="189.37" y1="27.7372" x2="189.37" y2="25.1618" gradientUnits="userSpaceOnUse">
<stop stop-color="#009EFD"/>
<stop offset="1" stop-color="#2AF598"/>
</linearGradient>
<linearGradient id="paint2_linear_0_797" x1="189.265" y1="93.275" x2="189.265" y2="36.9891" gradientUnits="userSpaceOnUse">
<stop stop-color="#009EFD"/>
<stop offset="1" stop-color="#2AF598"/>
</linearGradient>
<linearGradient id="paint3_linear_0_797" x1="117.008" y1="118.833" x2="117.008" y2="19.944" gradientUnits="userSpaceOnUse">
<stop stop-color="#009EFD"/>
<stop offset="1" stop-color="#2AF598"/>
</linearGradient>
<linearGradient id="paint4_linear_0_797" x1="113.035" y1="124.837" x2="113.035" y2="15.0593" gradientUnits="userSpaceOnUse">
<stop stop-color="#009EFD"/>
<stop offset="1" stop-color="#2AF598"/>
</linearGradient>
<linearGradient id="paint5_linear_0_797" x1="200.971" y1="23.9163" x2="200.971" y2="2" gradientUnits="userSpaceOnUse">
<stop stop-color="#009EFD"/>
<stop offset="1" stop-color="#2AF598"/>
</linearGradient>
</defs>
</svg>
